#define Busca_width 14
#define Busca_height 14
static unsigned char Busca_bits[] = {
   0x78, 0x00, 0xfc, 0x01, 0x86, 0x03, 0x03, 0x03, 0x03, 0x02, 0x03, 0x02,
   0x03, 0x03, 0x06, 0x03, 0xce, 0x03, 0xfc, 0x07, 0x00, 0x0e, 0x00, 0x1c,
   0x00, 0x38, 0x00, 0x30 };
