#define Cloud_width 14
#define Cloud_height 14
static unsigned char Cloud_bits[] = {
   0x00, 0x00, 0x00, 0x00, 0x00, 0x00, 0xc0, 0x03, 0xf8, 0x03, 0x1c, 0x00,
   0xdc, 0x07, 0xef, 0x0f, 0xf7, 0x1f, 0xf7, 0x3f, 0xf6, 0x3f, 0x00, 0x00,
   0x00, 0x00, 0x00, 0x00 };
