#define CPU_width 12
#define CPU_height 12
static unsigned char CPU_bits[] = {
   0x08, 0x01, 0x68, 0x01, 0xfc, 0x03, 0xff, 0x0f, 0x8e, 0x03, 0x0e, 0x07,
   0x0f, 0x07, 0x0e, 0x03, 0xff, 0x0f, 0xfe, 0x03, 0xfc, 0x01, 0x28, 0x01 };
