#define GPU_width 14
#define GPU_height 14
static unsigned char GPU_bits[] = {
   0x00, 0x00, 0x00, 0x00, 0x02, 0x00, 0xfe, 0x1f, 0xce, 0x31, 0x86, 0x22,
   0xc2, 0x20, 0x86, 0x20, 0x86, 0x35, 0xfe, 0x3f, 0x0a, 0x0b, 0xf8, 0x0c,
   0x00, 0x00, 0x00, 0x00 };
