#define keyboard_width 18
#define keyboard_height 18
#define keyboard_x_hot 0
#define keyboard_y_hot 0
static unsigned char keyboard_bits[] = {
   0x00, 0x00, 0x00, 0x00, 0x00, 0x00, 0x00, 0x20, 0x00, 0x00, 0x20, 0x00,
   0x00, 0x1c, 0x00, 0x00, 0x02, 0x00, 0x00, 0x03, 0x00, 0xfe, 0xff, 0x01,
   0xff, 0xff, 0x03, 0xbb, 0x77, 0x03, 0xfb, 0x7f, 0x03, 0x57, 0xd5, 0x03,
   0x57, 0xd5, 0x03, 0x1f, 0xe0, 0x03, 0x0b, 0x40, 0x03, 0xff, 0xff, 0x03,
   0xfe, 0xff, 0x01, 0x00, 0x00, 0x00 };
