#define Off_width 12
#define Off_height 12
static unsigned char Off_bits[] = {
   0x60, 0x00, 0x60, 0x00, 0xf8, 0x01, 0x6c, 0x03, 0x66, 0x06, 0x66, 0x06,
   0x02, 0x04, 0x02, 0x04, 0x06, 0x06, 0x0c, 0x03, 0xfc, 0x03, 0xf0, 0x00 };
