#define upload_width 12
#define upload_height 12
static unsigned char upload_bits[] = {
   0x00, 0x00, 0x20, 0x00, 0x70, 0x00, 0xf8, 0x00, 0x70, 0x00, 0x70, 0x00,
   0x70, 0x00, 0x20, 0x00, 0xff, 0x07, 0xff, 0x05, 0xff, 0x07, 0x00, 0x00 };
